<svg preserveAspectRatio="none" width="100%" height="100%" overflow="visible" style="display: block;" viewBox="0 0 32.5453 29.1755" fill="none" xmlns="http://www.w3.org/2000/svg">
<g id="chat">
<path id="Union" d="M4.75163 0C2.12738 0 0 2.12738 0 4.75163V18.9415C0 21.5657 2.12738 23.6931 4.75163 23.6931H18.7848C18.9008 23.6931 19.0138 23.7305 19.1068 23.7999L26.1721 29.0677C26.5274 29.3325 27.0326 29.079 27.0326 28.6359L27.0326 24.2316C27.0326 23.9342 27.2737 23.6931 27.5711 23.6931H27.7937C30.4179 23.6931 32.5453 21.5657 32.5453 18.9415V4.75163C32.5453 2.12738 30.4179 0 27.7937 0H4.75163Z" fill="var(--fill-0, #FFE672)"/>
<ellipse id="Ellipse 670" cx="10.534" cy="12.3432" rx="1.27273" ry="1.29105" fill="var(--fill-0, #DBC24D)"/>
<ellipse id="Ellipse 671" cx="16.1653" cy="12.3432" rx="1.27273" ry="1.29105" fill="var(--fill-0, #DBC24D)"/>
<ellipse id="Ellipse 672" cx="21.7956" cy="12.3432" rx="1.27273" ry="1.29105" fill="var(--fill-0, #DBC24D)"/>
</g>
</svg>
