<svg preserveAspectRatio="none" width="100%" height="100%" overflow="visible" style="display: block;" viewBox="0 0 212.872 247.336" fill="none" xmlns="http://www.w3.org/2000/svg">
<g id="Person">
<rect id="Rectangle 5703" x="82.831" y="30.0164" width="19.6678" height="37.3009" rx="9.83388" fill="var(--fill-0, #FFCDAE)"/>
<path id="Vector" d="M40.0435 101.202C40.0435 101.202 31.9979 109.8 25.4839 110.842C19.7398 111.762 13.5007 107.738 13.0477 99.8934C12.5964 92.0519 14.4793 55.5851 14.4793 55.5851L21.9836 55.1545L26.4268 56.4741L34.2032 90.9431L40.0435 101.202Z" fill="var(--fill-0, #FFCDAE)"/>
<path id="Union" d="M102.479 50.3633C105.031 50.3633 108.694 55.6989 109.471 59.1103C125.48 60.9253 133.183 64.064 135.505 66.2539C149.163 76.6699 179.115 142.454 181.841 149.924C184.83 158.114 181.178 163.561 179.947 165.166L181.841 168.447C181.841 169.187 182.4 170.314 176.269 174.369C170.137 178.424 165.765 178.031 164.346 177.327L160.574 172.19C159.159 171.964 152.633 172.19 147.719 165.166L137.078 138.138C137.318 141.165 137.177 144.008 136.252 146.442C133.379 154.002 114.183 153.974 102.874 153.958C102.366 153.957 101.873 153.957 101.398 153.957C96.4185 153.957 66.9008 153.956 64.0557 148.589C57.7148 145.398 55.3107 121.112 55.165 112.764C47.3406 125.645 28.9785 133.563 17.0166 123.453C8.12579 115.939 4.76483 83.9328 4.76466 77.8486C4.76466 71.7656 10.3535 66.4639 10.3535 66.4639L13.5537 61.5117C13.5537 61.5117 17.5937 64.0165 27.9072 61.5117L29.9492 65.3896C29.9492 65.3896 35.3676 68.2539 36.3154 72.5478C37.2633 76.8419 38.0938 84.4961 38.0938 84.4961C43.4284 75.1926 51.8214 66.1022 58.3652 62.667C62.3376 60.5818 70.1639 59.0405 79.1055 58.335C80.254 55.317 81.8872 53.4843 82.8457 53.1396C83.1326 57.677 83.7391 58.773 86.7149 61.1758C87.977 62.1951 88.649 64.1875 89.0059 66.1435C89.1887 66.1929 89.3825 66.2297 89.5889 66.2529C89.987 64.6585 90.7953 63.019 92.3682 61.8672C96.5342 58.8168 101.884 54.8684 102.479 50.3633Z" fill="var(--fill-0, #81E6FD)"/>
<path id="Intersect" d="M130.521 147.558C130.524 147.585 131.894 159.959 143.128 214.32C145.374 225.779 147.656 236.352 149.932 246.101C144.088 246.914 138.119 247.336 132.05 247.336C122.335 247.336 112.874 246.256 103.779 244.216C101.541 227.421 100.092 210.902 100.088 196.375C100.088 196.331 100.085 196.289 100.074 196.247C99.8817 195.511 98.6322 195.617 98.5901 196.41C97.8851 209.759 97.8652 225.948 98.22 242.838C83.1952 238.751 69.2734 232.011 56.9954 223.152C59.2753 199.632 62.6408 174.103 67.5139 147.558H130.521Z" fill="var(--fill-0, #1F2533)"/>
<path id="Vector 706" d="M76.2991 19.6568L68.1088 13.4322L79.5753 14.0874L76.2991 19.6568Z" fill="var(--fill-0, #B7A400)"/>
<g id="phone">
<path id="Union_2" d="M16.2724 20.3516C16.5327 19.5524 17.2819 18.9485 18.2003 18.9538L33.8467 19.0493C34.7778 19.0551 35.5821 19.6962 35.7919 20.6037L42.4259 49.0125C42.6672 50.0578 42.0531 51.0701 41.0975 51.3822L41.0954 51.3818L41.0965 51.3856C40.8958 51.452 40.6797 51.4857 40.4519 51.4843L24.8065 51.3885C23.8803 51.3829 23.0751 50.742 22.8603 49.8345L16.2463 21.5083L16.2272 21.4284C16.1393 21.0624 16.1641 20.6941 16.2688 20.3567L16.2707 20.3562C16.2711 20.3547 16.272 20.3531 16.2724 20.3516Z" fill="var(--fill-0, #1F2533)"/>
<path id="Vector_2" d="M18.4952 22.8989C18.6678 22.5195 18.9699 22.2409 19.3511 22.1206C20.1287 21.875 20.9719 22.3583 21.2396 23.1985C21.3674 23.5998 21.3473 24.0278 21.1848 24.3948C21.0123 24.7743 20.7101 25.0528 20.3289 25.1757C20.1909 25.2199 20.0481 25.2391 19.9054 25.2382C19.2671 25.2343 18.659 24.785 18.4404 24.0927C18.3127 23.6914 18.3328 23.2685 18.4953 22.8964L18.4952 22.8989ZM19.0976 23.8839C19.2499 24.363 19.7062 24.6512 20.1151 24.5185C20.3058 24.4546 20.4618 24.3103 20.5507 24.1106C20.6446 23.8958 20.6586 23.6481 20.58 23.4098C20.4522 23.011 20.1184 22.7461 19.7679 22.744C19.6978 22.7435 19.6301 22.7556 19.5599 22.7802C19.3693 22.8392 19.2132 22.9859 19.1244 23.1832C19.0711 23.3005 19.0452 23.4305 19.0445 23.5607C19.0438 23.6708 19.0581 23.7811 19.095 23.8864L19.0976 23.8839Z" fill="var(--fill-0, white)"/>
<path id="Vector_3" d="M20.0425 25.9219C20.4237 25.8015 20.834 25.8491 21.1932 26.0616C21.5399 26.2665 21.8058 26.601 21.9335 27.0023C22.0613 27.4012 22.0386 27.8266 21.8736 28.1961C21.7061 28.5806 21.399 28.8541 21.0178 28.977C20.8798 29.0212 20.737 29.0454 20.5943 29.0445C20.3439 29.043 20.0965 28.9714 19.8645 28.8373C19.5178 28.6324 19.2545 28.2978 19.1267 27.8965C18.859 27.0537 19.2674 26.1675 20.04 25.9219L20.0425 25.9219ZM19.7889 27.6902C19.8651 27.926 20.0166 28.1247 20.2186 28.2436C20.4082 28.3549 20.6183 28.3787 20.8114 28.3198C21.0021 28.2609 21.1582 28.1141 21.2445 27.9169C21.3434 27.7022 21.3525 27.4519 21.2763 27.2111C21.2002 26.9753 21.0487 26.7767 20.8466 26.6578C20.7244 26.5869 20.5919 26.5511 20.4667 26.5503C20.3941 26.5499 20.3239 26.562 20.2562 26.5816C19.8449 26.7118 19.6391 27.2112 19.7914 27.6903L19.7889 27.6902Z" fill="var(--fill-0, white)"/>
</g>
<path id="Vector 693" d="M169.851 189.342C165.29 182.399 170.362 178.044 165.947 166.636L176.46 161.072C176.271 161.817 186.135 183.804 186.135 183.804C186.135 183.804 197.373 207.401 197.882 209.639C198.391 211.876 196.228 210.643 196.228 210.643C196.228 210.643 196.848 213.768 196.481 214.044C195.739 214.601 194.788 214.558 193.584 212.813C194.093 215.051 192.68 215.081 191.265 213.654C188.061 210.424 181.253 195.915 179.577 195.349C177.901 194.782 178.593 196.604 179.279 199.824C179.828 202.399 180.095 207.505 178.128 207.372C176.162 207.238 175.778 198.361 169.851 189.342Z" fill="var(--fill-0, #FFCDAE)"/>
<path id="Vector_4" d="M26.1829 58.4501C26.1829 58.4501 27.364 56.8234 26.8125 52.4139C26.3738 48.9103 23.1221 44.2779 23.1221 44.2779C23.1221 44.2779 26.6326 43.4923 28.7004 43.1455C31.5775 42.6623 30.1855 40.2993 30.1855 40.2993C30.1855 40.2993 33.3539 39.8141 34.0016 39.1063C35.4338 37.5365 33.5581 36.3851 33.5581 36.3851C33.5581 36.3851 35.0166 35.1013 34.3717 34.0374C33.7284 32.9764 30.773 32.966 30.763 32.9656C31.0913 32.967 31.5487 32.4656 31.6769 32.2129C32.4457 30.7141 30.4208 30.1076 29.3893 29.9024C27.7611 29.5781 26.0674 29.5505 24.4146 29.6665C23.2239 29.7504 22.0408 29.9199 20.8724 30.1671C15.2845 31.3573 12.1991 32.5676 11.4003 36.432C10.6016 40.2963 14.6838 57.5939 14.6838 57.5939L19.5781 60.5015L26.1783 58.4487L26.1829 58.4501Z" fill="var(--fill-0, #FFCDAE)"/>
<g id="Vector 676">
<path d="M54.7228 130.035C55.837 103.823 52.72 84.0696 53.476 77.1884C53.4759 70.7649 52.4813 65.5545 59.6436 61.4636C66.1069 57.772 74.0114 56.5884 78.2704 56.6245C78.9702 56.6304 79.5046 57.239 79.2633 57.8958C78.2164 60.7447 74.6242 63.6244 81.0375 86.9193C86.4384 106.537 85.0003 137.364 84.2257 155.108C84.1471 156.907 77.4455 156.568 75.6467 156.48C64.5026 155.936 61.9093 154.199 59.0518 152.911C58.4978 152.661 58.1119 152.169 57.8932 151.602C54.7114 143.349 54.3385 132.413 54.7228 130.035Z" fill="var(--fill-0, #FFE672)"/>
<path d="M99.434 89.4389C102.094 77.2124 109.907 64.256 110.595 59.7522C110.681 59.1857 111.304 58.2794 111.877 58.2758C118.439 58.2348 127.102 59.827 130.904 63.6004C131.123 63.8172 131.137 64.1565 130.993 64.4286C129.376 67.4835 135.23 77.2338 138.995 94.8643C143.969 118.159 142.384 123.534 142.782 136.034C143.075 145.235 140.583 150.331 138.995 152.119C138.75 152.395 138.437 152.581 138.09 152.703C131.464 155.031 125.213 156.55 114.767 157.51C112.938 157.678 99.4787 158.31 99.3246 156.48C97.6428 136.509 95.5212 107.424 99.434 89.4389Z" fill="var(--fill-0, #FFE672)"/>
</g>
<path id="Intersect_2" d="M96.7571 30.6118C99.216 30.6119 100.37 33.2441 100.64 34.56V43.8676C98.0772 48.3189 88.1309 56.5304 82.8547 54.6498V30.6118H96.7571Z" fill="var(--fill-0, #E5AE8C)"/>
<path id="Union_3" d="M97.2672 8.84597C102.086 8.47516 107.571 12.0485 107.253 16.8714L106.579 26.0891C106.186 32.0355 103.122 37.0866 97.3824 38.6897L88.1539 26.1712C86.5815 27.5744 84.4776 28.4339 82.1646 28.4339C77.2966 28.4336 73.3503 24.6334 73.3502 19.9456C73.3502 16.6946 75.2487 13.8715 78.0357 12.4456L76.6148 10.5178L97.2672 8.84597Z" fill="var(--fill-0, #1F2533)"/>
<ellipse id="Ellipse 691" cx="104.133" cy="34.5333" rx="3.11686" ry="3.63634" fill="var(--fill-0, #FFCDAE)"/>
<path id="Vector 680" d="M78.0428 41.2638V21.2919C78.0428 20.622 78.9684 20.303 79.4674 20.75C85.5451 26.1926 95.3673 19.9882 98.4201 19.9882C101.725 19.9882 95.3114 26.2452 102.576 28.2999L103.049 37.9898L97.8304 44.689C83.218 53.5946 78.5502 46.1162 78.0428 41.2638Z" fill="var(--fill-0, #FFCDAE)"/>
<path id="Vector 682" d="M98.4211 37.6503C100.499 34.0139 102.284 29.8581 103.096 25.7023C103.419 29.8561 103.096 38.6892 101.538 42.3256C98.9495 48.3652 93.4678 50.421 89.1965 50.421C84.4867 50.421 80.624 50.7455 78.3623 45.8265C76.5529 41.8913 77.2912 35.7011 78.0451 33.187C78.1615 39.2087 80.3051 37.9025 81.1207 37.4264C84.7057 35.3335 91.1273 35.6173 94.1179 38.0456C94.528 38.3785 96.8627 40.2476 98.4211 37.6503Z" fill="var(--fill-0, #1F2533)"/>
<path id="Intersect_3" d="M107.821 19.8327L68.1088 13.5525L68.1944 13.0111L74.5621 11.8701C77.3977 6.23503 82.8103 2.39716 88.877 1.83513C89.0786 0.655732 90.1416 -0.153176 91.2648 0.0244577L94.3404 0.51084C95.39 0.676831 96.1238 1.64601 96.075 2.7385C103.03 5.21206 107.741 12.0691 107.821 19.8327Z" fill="var(--fill-0, #FFE672)"/>
</g>
</svg>
