<svg preserveAspectRatio="none" width="100%" height="100%" overflow="visible" style="display: block;" viewBox="0 0 146.412 218.558" fill="none" xmlns="http://www.w3.org/2000/svg">
<g id="Person">
<path id="Vector" d="M74.8092 58.1633C73.4179 61.4383 74.3342 63.7008 75.3862 66.7701C75.7255 67.7511 75.7865 68.5817 75.6508 69.2857C65.1597 70.7584 53.4866 70.6285 39.3876 69.2858C13.6155 66.8313 2.43133 60.4497 0.024425 60.5444C-0.152034 58.8673 0.64884 57.0558 1.74153 55.7663C2.39307 54.9911 3.47215 54.469 3.98795 53.5909C5.45392 51.1544 4.90422 49.1213 4.62596 46.6057C4.4495 45.0552 4.65309 43.481 5.1146 42.0175C5.80686 39.8262 7.10995 38.0463 8.68451 36.6382C10.9038 34.6526 12.9467 34.6368 13.7 31.1719C14.8402 25.8558 13.3743 19.043 16.0687 14.1146C19.8557 7.19271 24.8401 5.21506 31.2197 7.07408C31.3216 6.95542 31.4302 6.85258 31.532 6.74974C31.8849 6.33838 32.2581 5.94284 32.6586 5.57895C38.6107 -0.23544 50.0981 -2.01365 56.5118 2.69323C61.7558 5.4698 62.6491 10.6989 64.5019 12.6133C66.6059 14.7729 69.434 16.3393 71.1782 18.9419C72.7935 21.323 74.4767 24.2737 74.5989 27.3985C74.7346 30.3966 73.0447 33.1258 73.3229 36.1477C73.5876 38.9244 75.4676 40.6173 76.5331 42.943C77.9108 45.8937 78.1755 49.414 77.2864 52.6178C76.7096 54.6351 75.5965 56.2963 74.8024 58.1712L74.8092 58.1633Z" fill="var(--fill-0, #1F2533)"/>
<path id="Vector 587" d="M54.8019 59.3228L49.0495 69.3873L60.1937 133.91C67.2599 134.93 84.34 133.643 91.2099 132.794L85.7963 91.1245L73.0241 69.3873L54.8019 59.3228Z" fill="var(--fill-0, #81E6FD)"/>
<path id="Intersect" d="M84.8755 124.362C86.5871 137.973 90.9444 162.392 94.5171 187.821C84.315 196.594 72.7076 203.777 60.0776 208.987C60.3059 198.398 60.4034 188.415 60.4419 180.252C60.4458 179.322 59.1251 179.247 58.9956 180.168C57.3419 191.933 56.0084 201.875 54.6001 211.098C41.1597 215.925 26.6728 218.558 11.5708 218.558C10.8199 218.558 10.0706 218.55 9.32274 218.537C16.272 192.758 20.1453 159.05 22.3306 148.863C24.7131 137.756 32.6833 126.676 35.52 124.362H84.8755Z" fill="var(--fill-0, #9A94FF)"/>
<path id="Vector 579" d="M34.7114 54.8405L36.7127 36.0452C36.2688 36.4327 32.2819 36.0452 31.6434 32.2142C31.0049 28.3833 34.7346 27.8382 36.2688 28.9887C38.9299 30.9843 41.9978 24.9278 42.7648 16.4909C47.3668 24.9278 59.6386 24.9278 60.4056 26.4618C60.4056 26.4618 61.7675 31.8457 61.1726 37.1997C60.4056 44.1026 57.7212 45.2531 55.0367 45.2531L54.6532 49.4715L54.2258 58.465C45.6494 62.1491 37.5702 57.6315 34.7114 54.8405Z" fill="var(--fill-0, #B9722B)"/>
<path id="Vector 580" d="M42.0006 39.4991C45.8355 43.334 49.6705 44.868 55.0394 45.2515L54.6559 49.4699C46.868 48.4788 42.4431 42.6653 42.0006 39.4991Z" fill="var(--fill-0, #A4580C)"/>
<path id="Vector 586" d="M86.5311 104.192H82.7055L71.6538 90.6064C74.3458 88.059 81.2602 81.2661 87.3812 74.4732C93.5021 67.6802 99.283 67.6802 101.408 68.5294C103.109 71.9258 109.201 75.3223 112.035 76.596C113.168 77.1621 114.33 80.1623 109.91 87.6345C105.489 95.1067 92.482 101.786 86.5311 104.192Z" fill="var(--fill-0, #81E6FD)"/>
<path id="Vector 589" d="M34.8596 53.1821L26.0392 57.8099L33.7311 124.387C33.3037 124.387 67.917 132.444 85.8646 124.387C82.446 111.948 74.3597 91.9189 76.0361 80.2848C76.8118 74.9017 61.6824 61.4838 54.4179 56.2538C45.8714 58.6285 37.9933 55.585 34.8596 53.1821Z" fill="var(--fill-0, white)"/>
<path id="Vector 590" d="M31.5371 54.131L19.9125 59.684L12.933 128.71C18.6143 137.91 43.3925 139.765 50.3699 138.92L47.4083 70.4523L32.2691 54.2691C32.0813 54.0684 31.7851 54.0125 31.5371 54.131Z" fill="var(--fill-0, #81E6FD)"/>
<path id="Vector 591" d="M16.9257 74.4165C12.7263 64.7765 17.8039 60.0083 18.3783 59.5202C27.449 51.8081 51.942 65.8072 60.4808 72.5133C62.7205 69.0205 67.7878 61.1967 70.1394 57.8436C72.4911 54.4906 77.2784 54.4906 79.3781 54.9097C79.938 55.4685 81.7298 57.173 84.4174 59.5202C87.105 61.8673 88.8403 62.1455 89.6802 62.0058C90.8304 62.7727 91.9809 64.6902 91.9809 68.5252C91.9809 71.1765 80.218 97.2422 71.8192 97.6613C63.4204 98.0804 27.0516 97.6613 16.9257 74.4165Z" fill="var(--fill-0, #81E6FD)"/>
<g id="Group 1000001138">
<path id="Vector 581" d="M109.432 57.8749C106.357 62.9342 101.887 68.6962 100.036 70.9447C101.061 76.3413 106.158 77.9716 108.578 78.1121C110.286 75.4419 113.105 71.3664 114.13 69.68C115.155 67.9935 117.387 67.3758 118.827 66.7287C125.446 63.7546 127.796 51.9724 129.931 51.9724C134.373 54.6707 136.907 53.9399 137.619 53.2372C135.483 50.7075 120.536 43.9618 118.827 44.3834C117.119 44.805 113.275 51.5508 109.432 57.8749Z" fill="var(--fill-0, #B9722B)"/>
<path id="Union" d="M96.925 39.2503C100.462 45.6338 105.983 55.5962 105.983 55.5962L108.525 58.9861L130.548 72.6982C130.602 72.7382 130.658 72.7766 130.715 72.8136C133.674 74.7375 138.906 71.94 142.4 66.5652C145.893 61.1904 146.326 55.2737 143.366 53.3499C143.198 53.2403 143.022 53.1461 142.839 53.0668L142.847 53.0539L120.559 39.4866C120.559 39.4866 106.155 39.3426 96.925 39.2503C96.3649 39.043 97.4901 39.0572 96.925 39.2503Z" fill="var(--fill-0, #9796FD)"/>
<path id="Vector 796" d="M120.92 39.6251C107.422 41.8747 107.047 54.8726 108.547 59.1219L88.3 39.2502C88.8999 32.9512 93.0492 30.6266 95.0488 30.2516L120.92 39.6251Z" fill="var(--fill-0, #7E74FF)"/>
<path id="Vector 583" d="M89.4883 42.9169C86.463 47.8945 82.0874 53.5522 80.1844 55.875C80.1251 55.9474 80.1028 56.0417 80.1217 56.1333C81.1833 61.2822 85.9897 62.9333 88.4513 63.1411C88.5649 63.1507 88.6715 63.0956 88.7331 62.9997C90.4494 60.3293 93.1807 56.3762 94.1861 54.722C95.2111 53.0355 97.4439 52.4178 98.8839 51.7707C105.413 48.8369 107.788 37.3316 109.901 37.0208C109.958 37.0124 110.015 37.0311 110.065 37.0608C114.075 39.4733 116.515 39.079 117.448 38.4607C117.586 38.3698 117.596 38.1847 117.479 38.0694C114.757 35.3971 100.547 29.015 98.8839 29.4254C97.1756 29.847 93.332 36.5928 89.4883 42.9169Z" fill="var(--fill-0, #B9722B)"/>
<ellipse id="Ellipse 666" cx="124.422" cy="55.4868" rx="5.98215" ry="10.6382" transform="rotate(33.0241 124.422 55.4868)" fill="var(--fill-0, #4740D4)"/>
<path id="Ellipse 667" d="M127.95 58.0763C124.748 63.0024 120.43 65.876 118.305 64.4948C115.762 61.9515 116.185 57.1318 119.387 52.2057C122.589 47.2796 127.528 44.5788 130.135 46.2737C132.26 47.6549 131.152 53.1502 127.95 58.0763Z" fill="var(--fill-0, #1F2533)"/>
<ellipse id="Ellipse 669" cx="135.599" cy="62.4503" rx="5.98215" ry="10.6382" transform="rotate(33.0241 135.599 62.4503)" fill="var(--fill-0, #4740D4)"/>
<path id="Ellipse 670" d="M139.128 65.0403C135.926 69.9664 131.608 72.8401 129.483 71.4588C126.94 68.9155 127.362 64.0959 130.564 59.1698C133.766 54.2437 138.706 51.5428 141.313 53.2377C143.438 54.619 142.33 60.1142 139.128 65.0403Z" fill="var(--fill-0, #1F2533)"/>
</g>
</g>
</svg>
