<svg preserveAspectRatio="none" width="100%" height="100%" overflow="visible" style="display: block;" viewBox="0 0 231.447 46.8911" fill="none" xmlns="http://www.w3.org/2000/svg">
<path id="Vector 797 (Stroke)" fill-rule="evenodd" clip-rule="evenodd" d="M231.391 0.976324C231.604 1.69742 231.192 2.45452 230.471 2.66736L230.086 1.3617L229.7 0.0560422C230.421 -0.156796 231.179 0.255229 231.391 0.976324ZM38.1331 0.587085C38.5609 1.20535 38.4065 2.05337 37.7882 2.48118C19.8376 14.902 9.58737 24.093 5.20652 30.6503C3.01072 33.9371 2.46219 36.3066 2.82867 37.972C3.17886 39.5634 4.47156 40.9473 7.10692 42.0272C9.74367 43.1076 13.489 43.7749 18.2282 44.0384C22.9475 44.3009 28.5618 44.1589 34.8842 43.6763C47.5288 42.7113 62.9072 40.392 79.4405 37.2905C112.502 31.0885 150.063 21.7817 179.373 14.0208C194.025 10.1411 206.608 6.6494 215.529 4.12775C219.989 2.86695 223.533 1.84872 225.961 1.14583C227.175 0.794387 228.111 0.521785 228.742 0.33712C229.058 0.244787 229.298 0.17444 229.458 0.127215L229.697 0.0571185C229.699 0.0563919 229.7 0.0560421 230.086 1.3617C230.471 2.66736 230.47 2.66777 230.467 2.66855L230.226 2.73949C230.064 2.78703 229.823 2.85771 229.506 2.95038C228.872 3.13571 227.935 3.40901 226.718 3.76117C224.285 4.4655 220.735 5.48529 216.269 6.74776C207.338 9.27266 194.739 12.7685 180.07 16.6527C150.738 24.4196 113.102 33.7462 79.9425 39.9665C63.3656 43.0762 47.8776 45.4152 35.0914 46.3911C28.6986 46.8791 22.9563 47.0283 18.077 46.7569C13.2175 46.4867 9.12194 45.7953 6.07456 44.5466C3.0258 43.2973 0.791123 41.3815 0.169602 38.5571C-0.43563 35.8068 0.59981 32.6446 2.94258 29.1379C7.63887 22.1084 18.2842 12.6659 36.239 0.242223C36.8573 -0.185585 37.7053 -0.0311856 38.1331 0.587085Z" fill="var(--fill-0, #FFE672)"/>
</svg>
