<svg width="324" height="324" viewBox="0 0 324 324" fill="none" xmlns="http://www.w3.org/2000/svg">
<circle cx="161.319" cy="162.681" r="127.286" fill="#F5F9FF"/>
<path d="M59.2052 28.5881C56.581 28.5881 54.4536 30.7155 54.4536 33.3398V47.5296C54.4536 50.1538 56.581 52.2812 59.2052 52.2812H73.2385C73.3545 52.2812 73.4674 52.3187 73.5604 52.388L80.6258 57.6558C80.981 57.9207 81.4862 57.6672 81.4862 57.2241L81.4862 52.8198C81.4862 52.5223 81.7273 52.2812 82.0247 52.2812H82.2473C84.8716 52.2812 86.9989 50.1538 86.9989 47.5296V33.3398C86.9989 30.7155 84.8716 28.5881 82.2473 28.5881H59.2052Z" fill="#9A94FF"/>
<ellipse cx="64.9876" cy="40.9312" rx="1.27273" ry="1.29105" fill="#746BF5"/>
<ellipse cx="70.6189" cy="40.9312" rx="1.27273" ry="1.29105" fill="#746BF5"/>
<ellipse cx="76.2493" cy="40.9312" rx="1.27273" ry="1.29105" fill="#746BF5"/>
<path d="M258.949 56.0244C261.573 56.0244 263.7 58.1518 263.7 60.776V74.9659C263.7 77.5901 261.573 79.7175 258.949 79.7175H244.915C244.799 79.7175 244.686 79.755 244.593 79.8243L237.528 85.0921C237.173 85.357 236.668 85.1034 236.668 84.6603L236.668 80.2561C236.668 79.9586 236.427 79.7175 236.129 79.7175H235.907C233.282 79.7175 231.155 77.5901 231.155 74.9659V60.776C231.155 58.1518 233.282 56.0244 235.907 56.0244H258.949Z" fill="#FFE672"/>
<ellipse cx="1.27273" cy="1.29105" rx="1.27273" ry="1.29105" transform="matrix(-1 0 0 1 254.439 67.0764)" fill="#DBC24D"/>
<ellipse cx="1.27273" cy="1.29105" rx="1.27273" ry="1.29105" transform="matrix(-1 0 0 1 248.808 67.0764)" fill="#DBC24D"/>
<ellipse cx="1.27273" cy="1.29105" rx="1.27273" ry="1.29105" transform="matrix(-1 0 0 1 243.177 67.0764)" fill="#DBC24D"/>
<rect x="112.78" y="72.6477" width="19.6678" height="37.3009" rx="9.83388" fill="#FFCDAE"/>
<path d="M69.9929 143.834C69.9929 143.834 61.9473 152.431 55.4333 153.474C49.6892 154.393 43.4501 150.369 42.9971 142.525C42.5458 134.683 44.4287 98.2164 44.4287 98.2164L51.9329 97.7858L56.3762 99.1055L64.1526 133.574L69.9929 143.834Z" fill="#FFCDAE"/>
<path d="M132.428 92.9946C134.981 92.9946 138.643 98.3303 139.42 101.742C155.429 103.557 163.133 106.695 165.454 108.885C179.112 119.301 209.064 185.085 211.79 192.555C214.779 200.746 211.128 206.192 209.896 207.797L211.79 211.079C211.79 211.819 212.349 212.946 206.218 217C200.087 221.055 195.714 220.662 194.295 219.958L190.523 214.822C189.108 214.596 182.582 214.822 177.668 207.797L167.027 180.769C167.268 183.796 167.126 186.64 166.201 189.074C163.328 196.634 144.132 196.606 132.823 196.589C132.315 196.589 131.822 196.588 131.348 196.588C126.368 196.588 96.85 196.588 94.0049 191.22C87.664 188.03 85.2599 163.744 85.1143 155.395C77.2898 168.277 58.9277 176.194 46.9658 166.084C38.075 158.57 34.714 126.564 34.7139 120.48C34.7139 114.397 40.3027 109.095 40.3027 109.095L43.5029 104.143C43.5029 104.143 47.5429 106.648 57.8564 104.143L59.8984 108.021C59.8984 108.021 65.3168 110.885 66.2646 115.179C67.2125 119.473 68.043 127.127 68.043 127.127C73.3776 117.824 81.7706 108.734 88.3145 105.298C92.2868 103.213 100.113 101.672 109.055 100.966C110.203 97.9484 111.836 96.1156 112.795 95.771C113.082 100.308 113.688 101.404 116.664 103.807C117.926 104.826 118.598 106.819 118.955 108.775C119.138 108.824 119.332 108.861 119.538 108.884C119.936 107.29 120.744 105.65 122.317 104.499C126.483 101.448 131.833 97.4998 132.428 92.9946Z" fill="#81E6FD"/>
<path d="M160.47 190.19C160.473 190.217 161.843 202.591 173.078 256.951C175.323 268.41 177.605 278.984 179.881 288.733C174.038 289.545 168.068 289.967 162 289.967C152.285 289.967 142.823 288.887 133.728 286.847C131.491 270.053 130.042 253.533 130.038 239.006C130.038 238.963 130.035 238.92 130.024 238.878C129.831 238.142 128.582 238.248 128.54 239.041C127.835 252.39 127.815 268.579 128.169 285.469C113.145 281.383 99.2229 274.642 86.9448 265.783C89.2247 242.264 92.5902 216.734 97.4634 190.19H160.47Z" fill="#1F2533"/>
<path d="M106.248 62.2882L98.0581 56.0635L109.525 56.7187L106.248 62.2882Z" fill="#B7A400"/>
<path d="M46.2211 62.9833C46.4813 62.1839 47.2312 61.5798 48.1499 61.5853L63.7953 61.681C64.7266 61.6867 65.5317 62.3276 65.7415 63.2351L72.3755 91.6439C72.6167 92.6891 72.0025 93.7014 71.0471 94.0137L71.0449 94.0133L71.0458 94.0161C70.8451 94.0825 70.6293 94.1171 70.4015 94.1157L54.7561 94.02C53.8298 94.0144 53.0247 93.3734 52.8099 92.4659L46.1959 64.1398L46.1759 64.0571L46.1758 64.0602C46.0879 63.6941 46.1128 63.3258 46.2175 62.9884L46.2193 62.9879C46.2198 62.9864 46.2206 62.9849 46.2211 62.9833Z" fill="#1F2533"/>
<path d="M48.4444 65.5303C48.617 65.1509 48.9191 64.8723 49.3003 64.752C50.0779 64.5064 50.9211 64.9896 51.1889 65.8299C51.3166 66.2312 51.2965 66.6592 51.134 67.0262C50.9615 67.4057 50.6593 67.6842 50.2781 67.8071C50.1401 67.8513 49.9973 67.8704 49.8546 67.8696C49.2163 67.8657 48.6082 67.4164 48.3896 66.7241C48.2619 66.3228 48.282 65.8999 48.4445 65.5278L48.4444 65.5303ZM49.0468 66.5153C49.1991 66.9944 49.6555 67.2826 50.0643 67.1499C50.255 67.0859 50.411 66.9417 50.4999 66.742C50.5938 66.5272 50.6079 66.2795 50.5292 66.0412C50.4014 65.6424 50.0676 65.3775 49.7171 65.3754C49.647 65.3749 49.5794 65.387 49.5091 65.4116C49.3185 65.4706 49.1624 65.6173 49.0736 65.8145C49.0203 65.9319 48.9945 66.0619 48.9937 66.1921C48.993 66.3022 49.0073 66.4125 49.0442 66.5178L49.0468 66.5153Z" fill="white"/>
<path d="M49.9915 68.5531C50.3727 68.4328 50.7829 68.4804 51.1421 68.6928C51.4889 68.8977 51.7548 69.2323 51.8825 69.6336C52.0102 70.0324 51.9876 70.4579 51.8226 70.8274C51.655 71.2119 51.348 71.4854 50.9667 71.6082C50.8288 71.6524 50.6859 71.6766 50.5433 71.6757C50.2929 71.6742 50.0455 71.6026 49.8135 71.4685C49.4668 71.2636 49.2034 70.9291 49.0757 70.5278C48.8079 69.685 49.2164 68.7988 49.989 68.5531L49.9915 68.5531ZM49.7379 70.3215C49.8141 70.5573 49.9655 70.756 50.1676 70.8749C50.3572 70.9862 50.5673 71.01 50.7604 70.9511C50.951 70.8922 51.1071 70.7454 51.1934 70.5482C51.2924 70.3335 51.3014 70.0832 51.2253 69.8424C51.1491 69.6066 50.9976 69.4079 50.7956 69.289C50.6733 69.2182 50.5409 69.1823 50.4157 69.1816C50.3431 69.1811 50.2729 69.1932 50.2052 69.2128C49.7939 69.343 49.5881 69.8425 49.7404 70.3215L49.7379 70.3215Z" fill="white"/>
<path d="M199.8 231.973C195.239 225.03 200.311 220.675 195.896 209.267L206.41 203.703C206.22 204.449 216.085 226.435 216.085 226.435C216.085 226.435 227.323 250.032 227.832 252.27C228.341 254.508 226.177 253.274 226.177 253.274C226.177 253.274 226.797 256.4 226.43 256.675C225.688 257.232 224.737 257.189 223.533 255.444C224.042 257.682 222.629 257.712 221.214 256.286C218.01 253.055 211.203 238.547 209.526 237.98C207.85 237.414 208.542 239.235 209.228 242.455C209.777 245.031 210.044 250.137 208.077 250.003C206.111 249.87 205.727 240.993 199.8 231.973Z" fill="#FFCDAE"/>
<path d="M56.132 101.081C56.132 101.081 57.313 99.4548 56.7615 95.0453C56.3228 91.5417 53.0711 86.9093 53.0711 86.9093C53.0711 86.9093 56.5816 86.1237 58.6494 85.7769C61.5265 85.2937 60.1345 82.9307 60.1345 82.9307C60.1345 82.9307 63.303 82.4455 63.9507 81.7377C65.3829 80.1679 63.5071 79.0165 63.5071 79.0165C63.5071 79.0165 64.9657 77.7327 64.3207 76.6688C63.6775 75.6078 60.722 75.5974 60.712 75.597C61.0403 75.5984 61.4978 75.097 61.6259 74.8443C62.3947 73.3455 60.3698 72.739 59.3384 72.5338C57.7101 72.2095 56.0164 72.1819 54.3636 72.2979C53.173 72.3818 51.9898 72.5513 50.8214 72.7985C45.2335 73.9887 42.1481 75.199 41.3493 79.0634C40.5506 82.9277 44.6328 100.225 44.6328 100.225L49.5271 103.133L56.1273 101.08L56.132 101.081Z" fill="#FFCDAE"/>
<path d="M84.6721 172.666C85.7863 146.455 82.6693 126.701 83.4254 119.82C83.4252 113.396 82.4306 108.186 89.5929 104.095C96.0563 100.403 103.961 99.2198 108.22 99.2559C108.919 99.2619 109.454 99.8704 109.213 100.527C108.166 103.376 104.574 106.256 110.987 129.551C116.388 149.168 114.95 179.996 114.175 197.739C114.096 199.538 107.395 199.199 105.596 199.112C94.452 198.568 91.8587 196.831 89.0011 195.543C88.4471 195.293 88.0612 194.8 87.8426 194.233C84.6607 185.981 84.2878 175.044 84.6721 172.666Z" fill="#FFE672"/>
<path d="M129.383 132.07C132.043 119.844 139.856 106.887 140.544 102.384C140.63 101.817 141.253 100.911 141.826 100.907C148.388 100.866 157.051 102.458 160.854 106.232C161.072 106.449 161.087 106.788 160.943 107.06C159.326 110.115 165.18 119.865 168.944 137.496C173.918 160.791 172.333 166.166 172.731 178.665C173.024 187.866 170.532 192.962 168.944 194.751C168.7 195.026 168.387 195.212 168.039 195.334C161.413 197.662 155.162 199.182 144.716 200.141C142.887 200.309 129.428 200.942 129.274 199.112C127.592 179.14 125.471 150.056 129.383 132.07Z" fill="#FFE672"/>
<path d="M126.706 73.2432C129.165 73.2433 130.319 75.8755 130.589 77.1914V86.499C128.026 90.9503 118.08 99.1618 112.804 97.2812V73.2432H126.706Z" fill="#E5AE8C"/>
<path d="M127.216 51.4774C132.036 51.1066 137.52 54.6799 137.202 59.5028L136.528 68.7205C136.135 74.6669 133.071 79.718 127.332 81.3211L118.103 68.8026C116.531 70.2058 114.427 71.0653 112.114 71.0653C107.246 71.065 103.299 67.2648 103.299 62.577C103.299 59.326 105.198 56.5029 107.985 55.077L106.564 53.1492L127.216 51.4774Z" fill="#1F2533"/>
<ellipse cx="134.083" cy="77.1647" rx="3.11686" ry="3.63634" fill="#FFCDAE"/>
<path d="M107.992 83.8952V63.9233C107.992 63.2534 108.918 62.9344 109.417 63.3814C115.494 68.824 125.317 62.6196 128.369 62.6196C131.675 62.6196 125.261 68.8766 132.525 70.9313L132.998 80.6212L127.78 87.3204C113.167 96.226 108.5 88.7476 107.992 83.8952Z" fill="#FFCDAE"/>
<path d="M128.37 80.2817C130.448 76.6454 132.233 72.4896 133.046 68.3337C133.369 72.4876 133.046 81.3207 131.487 84.957C128.899 90.9966 123.417 93.0525 119.146 93.0525C114.436 93.0525 110.573 93.377 108.312 88.458C106.502 84.5228 107.241 78.3326 107.995 75.8184C108.111 81.8401 110.254 80.534 111.07 80.0578C114.655 77.9649 121.077 78.2487 124.067 80.6771C124.477 81.01 126.812 82.8791 128.37 80.2817Z" fill="#1F2533"/>
<path d="M137.77 62.464L98.0581 56.1838L98.1437 55.6424L104.511 54.5015C107.347 48.8664 112.76 45.0285 118.826 44.4665C119.028 43.2871 120.091 42.4782 121.214 42.6558L124.29 43.1422C125.339 43.3082 126.073 44.2774 126.024 45.3698C132.98 47.8434 137.69 54.7005 137.77 62.464Z" fill="#FFE672"/>
<path d="M224.557 129.571C223.166 132.846 224.082 135.109 225.134 138.178C225.474 139.159 225.535 139.99 225.399 140.694C214.908 142.167 203.235 142.037 189.136 140.694C163.364 138.239 152.179 131.858 149.772 131.953C149.596 130.276 150.397 128.464 151.49 127.175C152.141 126.399 153.22 125.877 153.736 124.999C155.202 122.563 154.652 120.53 154.374 118.014C154.198 116.463 154.401 114.889 154.863 113.426C155.555 111.234 156.858 109.455 158.433 108.046C160.652 106.061 162.695 106.045 163.448 102.58C164.588 97.264 163.122 90.4512 165.817 85.5228C169.604 78.6009 174.588 76.6233 180.968 78.4823C181.07 78.3636 181.178 78.2608 181.28 78.1579C181.633 77.7466 182.006 77.351 182.407 76.9871C188.359 71.1728 199.846 69.3946 206.26 74.1014C211.504 76.878 212.397 82.1071 214.25 84.0215C216.354 86.1811 219.182 87.7475 220.926 90.3501C222.542 92.7312 224.225 95.6819 224.347 98.8067C224.483 101.805 222.793 104.534 223.071 107.556C223.336 110.333 225.216 112.025 226.281 114.351C227.659 117.302 227.924 120.822 227.034 124.026C226.458 126.043 225.345 127.705 224.55 129.579L224.557 129.571Z" fill="#1F2533"/>
<path d="M204.55 130.731L198.797 140.795L209.942 205.318C217.008 206.338 234.088 205.052 240.958 204.202L235.544 162.533L222.772 140.795L204.55 130.731Z" fill="#81E6FD"/>
<path d="M234.624 195.77C236.335 209.381 240.692 233.8 244.265 259.229C234.063 268.002 222.456 275.185 209.826 280.395C210.054 269.806 210.151 259.823 210.19 251.661C210.194 250.731 208.873 250.656 208.744 251.577C207.09 263.342 205.756 273.283 204.348 282.506C190.908 287.333 176.421 289.966 161.319 289.966C160.568 289.966 159.819 289.958 159.071 289.945C166.02 264.166 169.893 230.458 172.079 220.271C174.461 209.164 182.431 198.084 185.268 195.77H234.624Z" fill="#9A94FF"/>
<path d="M184.46 126.249L186.461 107.453C186.017 107.841 182.03 107.453 181.392 103.622C180.753 99.7916 184.483 99.2464 186.017 100.397C188.678 102.393 191.746 96.3361 192.513 87.8992C197.115 96.3361 209.387 96.3361 210.154 97.8701C210.154 97.8701 211.516 103.254 210.921 108.608C210.154 115.511 207.469 116.661 204.785 116.661L204.401 120.88L203.974 129.873C195.398 133.557 187.318 129.04 184.46 126.249Z" fill="#B9722B"/>
<path d="M191.749 110.907C195.583 114.742 199.418 116.276 204.787 116.66L204.404 120.878C196.616 119.887 192.191 114.074 191.749 110.907Z" fill="#A4580C"/>
<path d="M236.279 175.601H232.454L221.402 162.015C224.094 159.467 231.008 152.674 237.129 145.881C243.25 139.089 249.031 139.089 251.156 139.938C252.857 143.334 258.949 146.731 261.783 148.004C262.917 148.57 264.078 151.571 259.658 159.043C255.237 166.515 242.23 173.195 236.279 175.601Z" fill="#81E6FD"/>
<path d="M184.608 124.59L175.787 129.218L183.479 195.795C183.052 195.795 217.665 203.852 235.612 195.795C232.194 183.356 224.108 163.327 225.784 151.693C226.56 146.31 211.43 132.892 204.166 127.662C195.619 130.037 187.741 126.993 184.608 124.59Z" fill="white"/>
<path d="M181.285 125.539L169.661 131.092L162.681 200.118C168.363 209.318 193.141 211.173 200.118 210.328L197.157 141.86L182.017 125.677C181.83 125.477 181.533 125.421 181.285 125.539Z" fill="#81E6FD"/>
<path d="M166.674 145.825C162.475 136.185 167.552 131.416 168.126 130.928C177.197 123.216 201.69 137.215 210.229 143.921C212.469 140.429 217.536 132.605 219.888 129.252C222.239 125.899 227.027 125.899 229.126 126.318C229.686 126.877 231.478 128.581 234.166 130.928C236.853 133.275 238.589 133.554 239.428 133.414C240.579 134.181 241.729 136.098 241.729 139.933C241.729 142.585 229.966 168.65 221.567 169.069C213.169 169.489 176.8 169.069 166.674 145.825Z" fill="#81E6FD"/>
<path d="M259.18 129.283C256.105 134.342 251.635 140.104 249.784 142.353C250.809 147.75 255.906 149.38 258.326 149.52C260.034 146.85 262.853 142.775 263.878 141.088C264.903 139.402 267.135 138.784 268.575 138.137C275.194 135.163 277.544 123.381 279.679 123.381C284.121 126.079 286.655 125.348 287.367 124.645C285.231 122.116 270.284 115.37 268.575 115.792C266.867 116.213 263.023 122.959 259.18 129.283Z" fill="#B9722B"/>
<path d="M246.673 110.659C250.211 117.042 255.731 127.004 255.731 127.004L258.274 130.394L280.296 144.106C280.351 144.146 280.406 144.185 280.463 144.222C283.423 146.146 288.654 143.348 292.148 137.973C295.642 132.599 296.074 126.682 293.115 124.758C292.946 124.649 292.77 124.554 292.588 124.475L292.595 124.462L270.307 110.895C270.307 110.895 255.903 110.751 246.673 110.659C246.113 110.451 247.238 110.465 246.673 110.659Z" fill="#9796FD"/>
<path d="M270.668 111.033C257.17 113.283 256.795 126.281 258.295 130.53L238.048 110.658C238.648 104.359 242.798 102.035 244.797 101.66L270.668 111.033Z" fill="#7E74FF"/>
<path d="M239.236 114.325C236.211 119.303 231.836 124.96 229.933 127.283C229.873 127.356 229.851 127.45 229.87 127.541C230.931 132.69 235.738 134.341 238.2 134.549C238.313 134.559 238.42 134.504 238.481 134.408C240.198 131.737 242.929 127.784 243.934 126.13C244.959 124.444 247.192 123.826 248.632 123.179C255.161 120.245 257.536 108.74 259.649 108.429C259.706 108.421 259.763 108.439 259.813 108.469C263.823 110.882 266.263 110.487 267.197 109.869C267.334 109.778 267.345 109.593 267.227 109.478C264.505 106.805 250.295 100.423 248.632 100.834C246.924 101.255 243.08 108.001 239.236 114.325Z" fill="#B9722B"/>
<ellipse cx="274.17" cy="126.895" rx="5.98215" ry="10.6382" transform="rotate(33.0241 274.17 126.895)" fill="#4740D4"/>
<path d="M277.699 129.484C274.497 134.41 270.178 137.284 268.053 135.903C265.51 133.36 265.933 128.54 269.135 123.614C272.337 118.688 277.276 115.987 279.884 117.682C282.009 119.063 280.901 124.558 277.699 129.484Z" fill="#1F2533"/>
<ellipse cx="285.347" cy="133.858" rx="5.98215" ry="10.6382" transform="rotate(33.0241 285.347 133.858)" fill="#4740D4"/>
<path d="M288.876 136.448C285.674 141.375 281.356 144.248 279.231 142.867C276.688 140.324 277.111 135.504 280.313 130.578C283.515 125.652 288.454 122.951 291.061 124.646C293.186 126.027 292.078 131.522 288.876 136.448Z" fill="#1F2533"/>
<path fill-rule="evenodd" clip-rule="evenodd" d="M258.617 203.816C258.83 204.537 258.418 205.294 257.697 205.507L257.312 204.202L256.926 202.896C257.647 202.683 258.405 203.095 258.617 203.816ZM65.3592 203.427C65.787 204.045 65.6326 204.893 65.0143 205.321C47.0636 217.742 36.8134 226.933 32.4326 233.49C30.2368 236.777 29.6883 239.146 30.0547 240.812C30.4049 242.403 31.6976 243.787 34.333 244.867C36.9697 245.947 40.715 246.615 45.4542 246.878C50.1736 247.141 55.7878 246.999 62.1103 246.516C74.7549 245.551 90.1332 243.232 106.667 240.13C139.728 233.928 177.289 224.622 206.599 216.861C221.251 212.981 233.834 209.489 242.755 206.968C247.215 205.707 250.759 204.689 253.187 203.986C254.401 203.634 255.337 203.362 255.968 203.177C256.284 203.085 256.524 203.014 256.685 202.967L256.923 202.897C256.925 202.896 256.926 202.896 257.312 204.202C257.697 205.507 257.696 205.508 257.693 205.508L257.452 205.579C257.29 205.627 257.049 205.698 256.732 205.79C256.099 205.976 255.161 206.249 253.944 206.601C251.511 207.305 247.961 208.325 243.495 209.588C234.564 212.113 221.965 215.608 207.296 219.493C177.964 227.259 140.328 236.586 107.169 242.806C90.5916 245.916 75.1037 248.255 62.3175 249.231C55.9246 249.719 50.1824 249.868 45.3031 249.597C40.4436 249.327 36.348 248.635 33.3006 247.386C30.2519 246.137 28.0172 244.221 27.3957 241.397C26.7904 238.647 27.8259 235.484 30.1687 231.978C34.8649 224.948 45.5103 215.506 63.4651 203.082C64.0833 202.654 64.9313 202.809 65.3592 203.427Z" fill="#FFE672"/>
<g filter="url(#filter0_d_1152_1366)">
<path d="M305.347 177.526L302.829 179.856L276.477 204.427C275.276 205.578 273.419 205.529 272.181 204.468L262.711 195.75L260.811 193.983L255.573 189.066C254.451 187.976 254.963 186.003 256.504 185.758L299.822 178.601L305.347 177.526Z" fill="url(#paint0_linear_1152_1366)"/>
<path d="M262.632 195.816L260.843 194.027L263.971 203.595C263.24 204.139 262.286 203.751 262.063 202.817L260.784 193.968L260.756 193.94L260.78 193.931L260.754 193.753L260.808 193.921L305.349 177.526L262.632 195.816Z" fill="url(#paint1_linear_1152_1366)"/>
</g>
<defs>
<filter id="filter0_d_1152_1366" x="244.092" y="170.275" width="72.1321" height="49.5032" filterUnits="userSpaceOnUse" color-interpolation-filters="sRGB">
<feFlood flood-opacity="0" result="BackgroundImageFix"/>
<feColorMatrix in="SourceAlpha" type="matrix" values="0 0 0 0 0 0 0 0 0 0 0 0 0 0 0 0 0 0 127 0" result="hardAlpha"/>
<feOffset dy="3.62529"/>
<feGaussianBlur stdDeviation="5.43793"/>
<feComposite in2="hardAlpha" operator="out"/>
<feColorMatrix type="matrix" values="0 0 0 0 0.396078 0 0 0 0 0.478431 0 0 0 0 0.576471 0 0 0 0.24 0"/>
<feBlend mode="normal" in2="BackgroundImageFix" result="effect1_dropShadow_1152_1366"/>
<feBlend mode="normal" in="SourceGraphic" in2="effect1_dropShadow_1152_1366" result="shape"/>
</filter>
<linearGradient id="paint0_linear_1152_1366" x1="254.759" y1="203.876" x2="299.192" y2="188.312" gradientUnits="userSpaceOnUse">
<stop stop-color="#8C83FF"/>
<stop offset="1" stop-color="#DCD9FF"/>
</linearGradient>
<linearGradient id="paint1_linear_1152_1366" x1="261.507" y1="202.94" x2="305.569" y2="178.94" gradientUnits="userSpaceOnUse">
<stop stop-color="#564BE7"/>
<stop offset="1" stop-color="#BDC9FF"/>
</linearGradient>
</defs>
</svg>
