<svg preserveAspectRatio="none" width="100%" height="100%" overflow="visible" style="display: block;" viewBox="0 0 66.9851 68.2914" fill="none" xmlns="http://www.w3.org/2000/svg">
<g id="Group 1">
<path id="Rectangle 1" d="M0 4.0597C0 1.81759 1.81759 6.83229e-07 4.0597 6.83229e-07C6.30181 6.83229e-07 8.1194 1.81759 8.1194 4.0597V18.2687C8.1194 20.5108 6.30181 22.3284 4.0597 22.3284C1.81759 22.3284 0 20.5108 0 18.2687V4.0597Z" fill="var(--fill-0, #A6F897)"/>
<rect id="Rectangle 2" x="58.8657" width="8.1194" height="22.3284" rx="4.0597" fill="var(--fill-0, #A6F897)"/>
<path id="Vector 5" d="M35.8143 3.04478C35.8143 11.5658 35.8143 14.8223 35.8143 23.3433C35.8143 25.4435 36.2866 33.0842 34.5075 34.5075C33.1547 35.5897 26.048 35.5224 24.3582 35.5224" stroke="var(--stroke-0, #A6F897)" stroke-width="4.8104" stroke-linecap="round"/>
<path id="Vector 6" d="M12.1791 56.8358C13.8243 58.6306 17.6276 61.3774 22.3515 63.5611C31.0068 67.562 41.1891 66.1715 49.2767 61.1206C51.2962 59.8593 53.2164 58.4254 54.806 56.8358" stroke="var(--stroke-0, #A6F897)" stroke-width="4.8104" stroke-linecap="round"/>
</g>
</svg>
